<svg xmlns="http://www.w3.org/2000/svg" width="147.73" height="35.344" viewBox="0 0 147.73 35.344">
  <g id="Gruppe_3295" data-name="Gruppe 3295" transform="translate(-256.52 -812.051)">
    <g id="CoinGecko-WhiteText" transform="translate(256.52 812.051)">
      <g id="Coin_Gecko_Vector_Text" data-name="Coin Gecko Vector Text" transform="translate(42.59 9.894)">
        <path id="Pfad_10" data-name="Pfad 10" d="M406.321,126.082a3.548,3.548,0,0,0-3.7-2.952c-3.182,0-4.512,2.806-4.512,5.653s1.33,5.655,4.512,5.655c2.31,0,3.576-1.725,3.782-3.887h2.536a6.078,6.078,0,0,1-6.314,6.006c-4.449,0-7.11-3.534-7.11-7.775s2.652-7.781,7.1-7.781c3.346.02,5.986,1.871,6.3,5.072Z" transform="translate(-395.52 -121)" fill="#fff"/>
        <path id="Pfad_11" data-name="Pfad 11" d="M492.66,153.663c0-3.285,1.974-5.653,5.425-5.653s5.425,2.368,5.425,5.653-1.974,5.676-5.425,5.676S492.66,156.969,492.66,153.663Zm8.48,0c0-1.848-.935-3.782-3.055-3.782s-3.055,1.933-3.055,3.782.935,3.805,3.055,3.805S501.14,155.534,501.14,153.663Z" transform="translate(-477.701 -143.851)" fill="#fff"/>
        <path id="Pfad_12" data-name="Pfad 12" d="M576.35,123.3h2.37v2.245h-2.37Zm0,4.1h2.37v10.747h-2.37Z" transform="translate(-548.504 -122.946)" fill="#fff"/>
        <path id="Pfad_13" data-name="Pfad 13" d="M608.48,148.292h2.245v1.58l.042.042A3.85,3.85,0,0,1,614.115,148c2.328,0,3.8,1.247,3.8,3.657v7.381h-2.37v-6.756c-.041-1.683-.707-2.41-2.1-2.41a2.619,2.619,0,0,0-2.6,2.826v6.341h-2.37Z" transform="translate(-575.686 -143.842)" fill="#fff"/>
        <path id="Pfad_14" data-name="Pfad 14" d="M697.316,136.2h-1.663l-.394-1.746a5.34,5.34,0,0,1-4.466,2.1c-4.446,0-7.113-3.539-7.113-7.775S686.347,121,690.79,121c3.234,0,5.966,1.725,6.36,5.072h-2.536c-.249-1.954-1.953-2.952-3.824-2.952-3.182,0-4.512,2.806-4.512,5.653s1.331,5.655,4.512,5.655a3.774,3.774,0,0,0,4.158-4.075H691v-1.973h6.314Z" transform="translate(-639.306 -121)" fill="#fff"/>
        <path id="Pfad_15" data-name="Pfad 15" d="M787.43,154.287c0,1.685.915,3.181,2.889,3.181a2.49,2.49,0,0,0,2.618-1.788h2.247a4.706,4.706,0,0,1-4.865,3.659c-3.366,0-5.259-2.35-5.259-5.655,0-3.057,2-5.675,5.2-5.675,3.388,0,5.467,3.055,5.073,6.277Zm5.53-1.558a2.766,2.766,0,1,0-5.53,0Z" transform="translate(-725.074 -143.851)" fill="#fff"/>
        <path id="Pfad_16" data-name="Pfad 16" d="M867.895,151.9a2.272,2.272,0,0,0-2.453-2.016c-1.232,0-2.952.644-2.952,3.907,0,1.788.79,3.68,2.847,3.68a2.554,2.554,0,0,0,2.558-2.453h2.37c-.437,2.786-2.156,4.324-4.928,4.324-3.368,0-5.217-2.392-5.217-5.551,0-3.243,1.768-5.778,5.3-5.778,2.495,0,4.62,1.247,4.844,3.887Z" transform="translate(-788.576 -143.851)" fill="#fff"/>
        <path id="Pfad_17" data-name="Pfad 17" d="M939,123.3h2.37v8.44l4.283-4.344h2.91l-4.116,3.948,4.511,6.8h-2.9l-3.285-5.219-1.414,1.372v3.85H939Z" transform="translate(-855.308 -122.946)" fill="#fff"/>
        <path id="Pfad_18" data-name="Pfad 18" d="M1007.81,153.663c0-3.285,1.974-5.653,5.425-5.653s5.427,2.368,5.427,5.653-1.976,5.676-5.427,5.676S1007.81,156.969,1007.81,153.663Zm8.482,0c0-1.848-.936-3.782-3.056-3.782s-3.055,1.933-3.055,3.782.935,3.805,3.055,3.805S1016.292,155.534,1016.292,153.663Z" transform="translate(-913.522 -143.851)" fill="#fff"/>
      </g>
      <g id="Coin_Gecko_AI" data-name="Coin Gecko AI" transform="translate(0 0)">
        <path id="Pfad_19" data-name="Pfad 19" d="M69.345,63.2A17.672,17.672,0,1,1,51.6,45.609,17.672,17.672,0,0,1,69.345,63.2Z" transform="translate(-34.001 -45.609)" fill="#8dc63f"/>
        <path id="Pfad_20" data-name="Pfad 20" d="M77.17,72.314A16.389,16.389,0,1,1,60.707,56,16.389,16.389,0,0,1,77.17,72.314Z" transform="translate(-43.106 -54.713)" fill="#f9e988"/>
        <path id="Pfad_21" data-name="Pfad 21" d="M174.341,63.324a8.682,8.682,0,0,1,3.035,0,9.236,9.236,0,0,1,2.9.971,16.844,16.844,0,0,1,2.453,1.8c.774.63,1.545,1.274,2.279,1.979a11.553,11.553,0,0,1,1.944,2.351,13.374,13.374,0,0,1,1.361,2.743,12.483,12.483,0,0,1,.559,6.015h-.1a27.709,27.709,0,0,0-1.485-5.643,22.022,22.022,0,0,0-1.168-2.629,25.825,25.825,0,0,0-1.536-2.466,8.944,8.944,0,0,0-2.059-2.078,11.991,11.991,0,0,0-2.615-1.293c-.892-.351-1.776-.715-2.707-.982s-1.875-.468-2.863-.662Z" transform="translate(-155.779 -61.015)" fill="#fff"/>
        <path id="Pfad_22" data-name="Pfad 22" d="M90.258,116.1c-1.2-.332-2.443-.8-3.7-1.277a2.432,2.432,0,0,0-.918-1.137c-.823-.682-2.368-.664-3.7-.362a9.667,9.667,0,0,0-4.328-.124c-11.432,3.007-4.95,10.345-9.147,17.72.6,1.21,7.034,8.269,16.348,6.375,0,0-3.185-7.31,4-10.819C94.641,123.616,98.853,118.331,90.258,116.1Z" transform="translate(-64.197 -103.466)" fill="#8bc53f"/>
        <path id="Pfad_23" data-name="Pfad 23" d="M238.264,172.148a.662.662,0,1,1-.666-.658A.662.662,0,0,1,238.264,172.148Z" transform="translate(-210.916 -155.348)" fill="#fff"/>
        <path id="Pfad_24" data-name="Pfad 24" d="M172.48,113.747a16.328,16.328,0,0,1,4.414,1.5C176.275,113.453,174.193,113.214,172.48,113.747Z" transform="translate(-154.657 -104.787)" fill="#009345"/>
        <path id="Pfad_25" data-name="Pfad 25" d="M135.346,130.572a3.053,3.053,0,1,1-3.053-3.052A3.053,3.053,0,0,1,135.346,130.572Z" transform="translate(-116.954 -116.953)" fill="#fff"/>
        <path id="Pfad_26" data-name="Pfad 26" d="M140.855,137.2a2.148,2.148,0,1,1-2.148-2.148A2.148,2.148,0,0,1,140.855,137.2Z" transform="translate(-123.362 -123.54)" fill="#58595b"/>
        <path id="Pfad_27" data-name="Pfad 27" d="M93.055,178.182a16.517,16.517,0,0,1-9.727,3.066c-1.958,0-2.355-1.979-3.65-1.012a9.507,9.507,0,0,1-4.892,1.54,6.019,6.019,0,0,1-5.743-4.936c-.335,3.805-.506,6.609-2,9.821,2.983,4.556,10.1,8.071,16.551,6.557-.694-4.621,3.539-9.146,5.924-11.462a30.59,30.59,0,0,0,3.539-3.576Z" transform="translate(-62.953 -159.405)" fill="#8bc53f"/>
        <path id="Pfad_28" data-name="Pfad 28" d="M185.136,188.338a11.07,11.07,0,0,1-2.613,1.676,16.606,16.606,0,0,1-2.932,1.068,9.21,9.21,0,0,1-3.129.361,4.283,4.283,0,0,1-2.863-1.258l.033-.038a5.455,5.455,0,0,0,2.86.788,13.435,13.435,0,0,0,3.006-.247,16.377,16.377,0,0,0,2.921-.9A10.874,10.874,0,0,0,185.1,188.3Z" transform="translate(-155.413 -169.964)" fill="#58595b"/>
      </g>
    </g>
  </g>
</svg>
