<svg id="coinmarketcap-seeklogo.com" xmlns="http://www.w3.org/2000/svg" width="205.524" height="35.344" viewBox="0 0 205.524 35.344">
  <path id="Pfad_29" data-name="Pfad 29" d="M50.476,291.031a1.877,1.877,0,0,1-1.884.137,2.894,2.894,0,0,1-1.1-2.6V284.7c0-1.849-.719-3.185-1.952-3.528-2.089-.616-3.665,1.952-4.247,2.911L37.6,290v-7.295c-.034-1.678-.582-2.671-1.61-2.98-.685-.205-1.712-.1-2.706,1.4l-8.254,13.22a14.611,14.611,0,0,1-1.678-6.781,14.249,14.249,0,1,1,28.495,0v.068a3.647,3.647,0,0,1-1.37,3.391ZM55,287.572h0V287.5a17.4,17.4,0,1,0-17.4,17.741,17.1,17.1,0,0,0,11.816-4.726,1.6,1.6,0,0,0-2.158-2.363l-.034.034a14.074,14.074,0,0,1-20.275-.925l7.432-11.918v5.514c0,2.637,1.027,3.493,1.884,3.733s2.158.068,3.562-2.158l4.076-6.61a3.793,3.793,0,0,1,.377-.548v3.356a5.92,5.92,0,0,0,2.706,5.411,4.977,4.977,0,0,0,5.1-.205A6.786,6.786,0,0,0,55,287.572Zm24.248-6.028a1.718,1.718,0,0,1,.788,1.336,1.514,1.514,0,0,1-1.473,1.507,2.592,2.592,0,0,1-.548-.1,5.628,5.628,0,0,0-3.322-1.13c-2.911,0-4.9,2.363-4.9,5.308a4.969,4.969,0,0,0,4.9,5.274,5.319,5.319,0,0,0,3.7-1.507,1.5,1.5,0,0,1,.856-.274,1.389,1.389,0,0,1,1.4,1.4,1.458,1.458,0,0,1-.685,1.2,8.13,8.13,0,1,1-5.24-14.384A7.74,7.74,0,0,1,79.244,281.544Zm8.151,3.425a5.688,5.688,0,0,1,5.582,5.754,5.825,5.825,0,0,1-5.582,5.856,5.891,5.891,0,0,1-5.822-5.856A5.8,5.8,0,0,1,87.4,284.969Zm-.034,8.768a2.735,2.735,0,0,0,2.466-2.98,2.572,2.572,0,0,0-2.466-2.808,2.62,2.62,0,0,0-2.637,2.808A2.815,2.815,0,0,0,87.361,293.737ZM94.9,294.8v-8.083a1.579,1.579,0,0,1,1.575-1.61,1.6,1.6,0,0,1,1.575,1.61V294.8a1.6,1.6,0,0,1-1.575,1.61A1.624,1.624,0,0,1,94.9,294.8Zm-.24-12.74a1.843,1.843,0,0,1,1.815-1.884,1.871,1.871,0,0,1,1.849,1.884,1.832,1.832,0,1,1-3.665,0Zm9.418,8.357V294.8a1.576,1.576,0,1,1-3.151,0v-8.459a1.216,1.216,0,1,1,2.432,0,4.57,4.57,0,0,1,3.459-1.37c3.151,0,4.555,2.363,4.555,5.069V294.8a1.576,1.576,0,1,1-3.151,0v-4.384c0-1.37-.171-2.534-2.158-2.534-1.4,0-1.986,1.164-1.986,2.534Zm17.5,1.678a1.021,1.021,0,0,1-.822-.411l-3.665-3.973V294.8a1.576,1.576,0,1,1-3.151,0V280.757a.667.667,0,0,1,.582-.411,1.1,1.1,0,0,1,.685.411l5.856,6.576a.764.764,0,0,0,.514.308.841.841,0,0,0,.514-.308l5.856-6.576a1.019,1.019,0,0,1,.685-.411.6.6,0,0,1,.582.411V294.8a1.579,1.579,0,0,1-1.575,1.61,1.6,1.6,0,0,1-1.575-1.61v-7.089l-3.665,3.973a1.264,1.264,0,0,1-.822.411Zm15.138,1.644a2.79,2.79,0,0,0,2.6-2.98,2.685,2.685,0,0,0-2.6-2.843,2.628,2.628,0,0,0-2.5,2.843A2.757,2.757,0,0,0,136.713,293.737Zm3.356,1.438L140,294.8c-.616,1.2-2.569,1.747-3.8,1.747-2.945,0-5.137-2.671-5.137-5.856a5.465,5.465,0,0,1,5.309-5.754,4.927,4.927,0,0,1,3.665,1.747l.069-.377a1.2,1.2,0,0,1,1.2-1.233,1.25,1.25,0,0,1,1.233,1.233v8.836a1.228,1.228,0,0,1-1.233,1.233,1.179,1.179,0,0,1-1.233-1.2Zm11.131-7.3h-.342c-1.986.1-2.363,1.233-2.363,2.534V294.8a1.576,1.576,0,1,1-3.151,0v-8.459a1.216,1.216,0,1,1,2.432,0,4.368,4.368,0,0,1,3.082-1.37h.308a1.477,1.477,0,0,1,1.438,1.473,1.44,1.44,0,0,1-1.4,1.438Zm12.158,6.165a1.505,1.505,0,0,1,.24.754,1.641,1.641,0,0,1-1.575,1.575,1.944,1.944,0,0,1-1.4-.891l-3.63-4.213v3.493a1.576,1.576,0,1,1-3.151,0V281.921a1.576,1.576,0,1,1,3.151,0v8.014l3.63-4.007a2.061,2.061,0,0,1,1.37-.856,1.574,1.574,0,0,1,1.507,1.541,1.348,1.348,0,0,1-.205.719l-2.877,3.151,2.945,3.562Zm6.165-6.13c-.856,0-2.26.445-2.26,1.781h4.555c-.034-1.336-1.473-1.781-2.295-1.781Zm4.11,3.8h-6.37c0,1.884,1.815,2.192,2.6,2.192a5.112,5.112,0,0,0,2.055-.411,1.551,1.551,0,0,1,.822-.24,1.294,1.294,0,0,1,1.267,1.3,1.388,1.388,0,0,1-.685,1.13,5.66,5.66,0,0,1-3.425.89c-3.185,0-5.822-1.712-5.822-5.719,0-3.151,1.61-5.891,5.377-5.891,3.048,0,5.343,1.986,5.411,5.514a1.25,1.25,0,0,1-1.233,1.233Zm8.768,4.829h-.856c-2.4,0-3.8-1.062-3.8-4.795v-3.87h-.822a1.456,1.456,0,0,1,0-2.911h.822v-2.98a1.579,1.579,0,0,1,1.575-1.61,1.6,1.6,0,0,1,1.575,1.61v2.98h1.3a1.448,1.448,0,0,1,1.4,1.473,1.489,1.489,0,0,1-1.4,1.438h-1.3v3.254c0,2.158.1,2.6,1.062,2.6h.445a1.41,1.41,0,0,1,1.4,1.4,1.433,1.433,0,0,1-1.4,1.4Zm15.241-15a1.717,1.717,0,0,1,.788,1.336,1.514,1.514,0,0,1-1.473,1.507,2.593,2.593,0,0,1-.548-.1,5.628,5.628,0,0,0-3.322-1.13c-2.911,0-4.9,2.363-4.9,5.308a4.969,4.969,0,0,0,4.9,5.274,5.319,5.319,0,0,0,3.7-1.507,1.5,1.5,0,0,1,.856-.274,1.389,1.389,0,0,1,1.4,1.4,1.458,1.458,0,0,1-.685,1.2,8.13,8.13,0,1,1-5.24-14.384,7.665,7.665,0,0,1,4.521,1.37Zm7.98,12.192a2.79,2.79,0,0,0,2.6-2.98,2.685,2.685,0,0,0-2.6-2.843,2.608,2.608,0,0,0-2.5,2.843,2.78,2.78,0,0,0,2.5,2.98Zm3.356,1.438-.068-.377c-.616,1.2-2.569,1.747-3.8,1.747-2.945,0-5.137-2.671-5.137-5.856a5.465,5.465,0,0,1,5.309-5.754,4.927,4.927,0,0,1,3.665,1.747l.069-.377a1.2,1.2,0,0,1,1.2-1.233,1.25,1.25,0,0,1,1.233,1.233v8.836a1.228,1.228,0,0,1-1.233,1.233A1.179,1.179,0,0,1,208.977,295.175Zm11.062-1.438a2.757,2.757,0,0,0,2.5-2.98,2.608,2.608,0,0,0-2.5-2.843,2.664,2.664,0,0,0-2.6,2.843A2.79,2.79,0,0,0,220.039,293.737Zm-2.6,1.884v4.007a1.576,1.576,0,1,1-3.151,0V286.339a1.228,1.228,0,0,1,1.233-1.233,1.259,1.259,0,0,1,1.2,1.37,5.065,5.065,0,0,1,3.7-1.507,5.465,5.465,0,0,1,5.308,5.754c0,3.151-2.158,5.856-5.137,5.856a6.041,6.041,0,0,1-3.151-.959Z" transform="translate(-20.2 -269.9)" fill="#fff"/>
</svg>
