<svg xmlns="http://www.w3.org/2000/svg" xmlns:xlink="http://www.w3.org/1999/xlink" width="182.416" height="35.344" viewBox="0 0 182.416 35.344">
  <defs>
    <linearGradient id="linear-gradient" x1="0.212" y1="0.105" x2="0.982" y2="0.845" gradientUnits="objectBoundingBox">
      <stop offset="0" stop-color="#ea3570"/>
      <stop offset="0.88" stop-color="#138fc9"/>
    </linearGradient>
  </defs>
  <g id="Gruppe_3296" data-name="Gruppe 3296" transform="translate(-720.116 -977.497)">
    <g id="图层_2" data-name="图层 2" transform="translate(768.297 985.526)">
      <g id="图层_1" data-name="图层 1" transform="translate(0 0)">
        <path id="COINTIGER" d="M45.319,25.339a12.073,12.073,0,0,0,5.031-.9l-.483-1.972a9.873,9.873,0,0,1-4.024.791c-4.6,0-7.284-2.965-7.284-7.646,0-5,2.965-7.848,7.432-7.848a8.72,8.72,0,0,1,3.81.791l.617-2A10.3,10.3,0,0,0,45.9,5.714a9.39,9.39,0,0,0-9.94,9.994C35.955,21.959,39.966,25.339,45.319,25.339Zm15.561,0c4.856,0,8.84-3.5,8.84-10.021,0-5.674-3.354-9.659-8.585-9.659s-8.813,3.957-8.813,9.994C52.321,21.422,55.822,25.339,60.88,25.339Zm.148-2c-3.89,0-6.1-3.635-6.1-7.74s2.039-7.928,6.131-7.928,6.063,3.957,6.063,7.767C67.118,19.759,64.918,23.341,61.027,23.341Zm14.34,1.69V6.009H72.886V25.031Zm6.6,0V16.848c0-3.166,0-5.446-.174-7.848h.08A55.364,55.364,0,0,0,85.4,15.359l6.037,9.659H93.92V6.009H91.626v7.968a68.687,68.687,0,0,0,.282,7.821h-.08a53.364,53.364,0,0,0-3.394-6.184l-6.063-9.6H79.687V25.031Zm23.972,0V9.617h5.2V6.009H96.509V9.617h5.138V25.031Zm11.8,0V6.009h-4.293V25.031Zm13.267.2a21.289,21.289,0,0,0,6.359-1.073V14.165h-7.083v3.354h2.938v4.024a6.6,6.6,0,0,1-2.093.255,5.728,5.728,0,0,1-6.023-6.292c0-4.145,2.683-6.157,6.318-6.157a9.967,9.967,0,0,1,4.4.818l.9-3.474a13.75,13.75,0,0,0-5.285-.9c-6.238,0-10.839,3.609-10.866,9.94a9.538,9.538,0,0,0,2.683,6.949A10.732,10.732,0,0,0,131.012,25.232Zm21.853-.2V21.5h-7.821V16.982h7V13.494h-7V9.537h7.432V6.009H140.765V25.031Zm7.2,0V17.559h1.274c1.784,0,2.6.644,3.139,3.045a25.492,25.492,0,0,0,1.341,4.427h4.346c-.362-.738-.926-3.22-1.529-5.366a4.749,4.749,0,0,0-2.5-3.555v-.08a5.044,5.044,0,0,0,3.354-4.655,4.829,4.829,0,0,0-1.784-4.024c-1.342-1.073-3.327-1.5-6.157-1.5a37.562,37.562,0,0,0-5.728.389V25.017Zm1.69-10.584h-1.69V9.228a8.559,8.559,0,0,1,1.945-.148c1.972,0,3.166.9,3.166,2.683s-1.274,2.683-3.421,2.683Z" transform="translate(-35.935 -5.66)" fill="#fff"/>
      </g>
    </g>
    <path id="cointiger_1_" data-name="cointiger (1)" d="M-.03,6.189A5.717,5.717,0,0,1,10.146,2.361c-1.342.549-5.282,2.63-7.193,8.7A5.78,5.78,0,0,1-.03,6.189Zm4.07,4.685H14.828a10.857,10.857,0,0,0-4.291-7.042c-.247-.182-.459-.323-.623-.425a17.736,17.736,0,0,0-5.871,7.467Zm22.2,0H36.7A17.747,17.747,0,0,0,31.08,3.591c-.156.1-.351.23-.572.393a10.855,10.855,0,0,0-4.268,6.89ZM12.609,19.507a11.1,11.1,0,0,0,2.349-7.367H3.57a17.783,17.783,0,0,0-.579,8.782,6.885,6.885,0,0,0,5.829-2.8l1.112,1.29a8.757,8.757,0,0,1-6.577,3.069q.2.723.467,1.42a11.207,11.207,0,0,0,8.789-4.395Zm3.86-4.872a13.506,13.506,0,0,1-2.837,6.459c.728.914,2.8,2.886,7.131,2.813a9.372,9.372,0,0,0,6.64-2.665,13.6,13.6,0,0,1-2.834-6.455S23.18,6.467,29.413,2.466A17.575,17.575,0,0,0,21.59.023v6.7H19.569V0a17.568,17.568,0,0,0-7.954,2.3c6.248,4,4.854,12.335,4.854,12.335ZM36.161.309A5.782,5.782,0,0,0,30.795,2.26a14.417,14.417,0,0,1,7.09,8.781A5.716,5.716,0,0,0,36.161.309ZM31.207,19.093l1.2-1.278a6.566,6.566,0,0,0,5.416,2.726,17.845,17.845,0,0,0,.233-2.878,17.662,17.662,0,0,0-.881-5.523H26.093A11.29,11.29,0,0,0,36.872,24.033,17.471,17.471,0,0,0,37.5,22.09a8.616,8.616,0,0,1-6.289-3ZM19.513,27.449V26.187a12.257,12.257,0,0,1-7.324-3.644,14.008,14.008,0,0,1-7.633,3.029,17.733,17.733,0,0,0,10.152,8.844A8.656,8.656,0,0,0,17.7,32.271a7.206,7.206,0,0,0,1.815-4.822Zm-1.984,7.667a17.859,17.859,0,0,0,6.061-.064,16.047,16.047,0,0,1-3.039-4.707,16.08,16.08,0,0,1-3.022,4.771ZM21.6,26.183v1.3a6.923,6.923,0,0,0,1.738,4.632A8.664,8.664,0,0,0,26.387,34.3a17.741,17.741,0,0,0,9.746-8.606,13.981,13.981,0,0,1-7.076-2.826A14.415,14.415,0,0,1,21.6,26.183Z" transform="translate(720.149 977.497)" fill="url(#linear-gradient)"/>
  </g>
</svg>
