<svg xmlns="http://www.w3.org/2000/svg" width="150.333" height="35.061" viewBox="0 0 150.333 35.061">
  <g id="logo_2_" data-name="logo (2)" transform="translate(0.378)">
    <path id="形状_756" data-name="形状 756" d="M456.183,2534.838a1.889,1.889,0,1,1,1.889,1.935,1.915,1.915,0,0,1-1.889-1.935Zm23.268-15.069v3.829h-5.756c-1.942,0-3.285.449-4.028,1.332a5.763,5.763,0,0,0-1.079,3.835,4.914,4.914,0,0,0,1.762,4.2,4.4,4.4,0,0,0,1.565.715,10.3,10.3,0,0,0,2.356.2h5.18v3.835h-6.584a12.8,12.8,0,0,1-4.207-.554,6.445,6.445,0,0,1-2.735-1.915,9.572,9.572,0,0,1-2.266-6.563q0-4.8,2.7-7.152a6.34,6.34,0,0,1,2.59-1.367,15.768,15.768,0,0,1,3.92-.4h6.584Zm11.763-.26q4.857,0,7.159,2.875a10.133,10.133,0,0,1,2.122,6.6,8.776,8.776,0,0,1-2.665,6.71,9.435,9.435,0,0,1-6.691,2.286,9.085,9.085,0,0,1-6.872-2.58q-2.3-2.325-2.3-6.788a9.158,9.158,0,0,1,2.195-6.262A8.944,8.944,0,0,1,491.213,2519.51Zm.036,3.759q-4.353,0-4.353,5.532a6.649,6.649,0,0,0,.72,3.429,3.979,3.979,0,0,0,3.669,1.991q4.277,0,4.277-5.5Q495.565,2523.349,491.25,2523.269Zm12.805-3.5h17.7a13.889,13.889,0,0,1,3.669.365,4.667,4.667,0,0,1,2.123,1.29,7.054,7.054,0,0,1,1.583,4.866v11.43h-4.82v-10.651a10.24,10.24,0,0,0-.108-1.809,1.82,1.82,0,0,0-.5-.919,3.1,3.1,0,0,0-2.266-.743h-2.554v14.122h-4.82V2523.6h-5.181v14.122h-4.82v-17.951Zm-75.375,8.969-6.948-9.2h5.521l4.156,6.128,4.506-6.128h5.457l-7.171,9.2,7.171,9.389h-5.3l-4.664-6.381-4.568,6.381h-5.362Zm19.735-5.883h-8.129l2.819-3.317h16.829v3.317h-7.012v15.272h-4.505v-15.272Z" transform="translate(-379.184 -2510.738)" fill="#fff" fill-rule="evenodd"/>
    <path id="形状_756_拷贝" data-name="形状 756 拷贝" d="M470.971,2540.585a1.889,1.889,0,1,1,1.889,1.935,1.915,1.915,0,0,1-1.889-1.935Z" transform="translate(-393.972 -2516.484)" fill="#ffbe41" fill-rule="evenodd"/>
    <path id="形状_519" data-name="形状 519" d="M378.285,2542.06a17.53,17.53,0,1,1,17.4-17.53A17.53,17.53,0,0,1,378.285,2542.06Zm0-32.459a14.929,14.929,0,1,0,14.821,14.929A14.93,14.93,0,0,0,378.285,2509.6Zm.625,12.524,3.359-4.109a1.01,1.01,0,0,0-.761-1.648h0a1,1,0,0,0-.761.358l-3.125,3.814-3.125-3.814a.964.964,0,0,0-.761-.358h-2.578a1,1,0,0,0-.761,1.648l4.648,5.68-5.936,7.265a1,1,0,1,0,1.524,1.29l5.7-6.963Zm7.79-5.757a1.006,1.006,0,0,0-.761.357l-5.68,6.97-2.578,3.156-3.359,4.109a1,1,0,1,0,1.523,1.29l3.125-3.807,3.124,3.808a.968.968,0,0,0,.762.357h2.573a1,1,0,0,0,.761-1.648l-4.647-5.673,5.936-7.271a1.016,1.016,0,0,0-.782-1.648" transform="translate(-361 -2507)" fill="#ffbe40" fill-rule="evenodd"/>
  </g>
</svg>
