<svg xmlns="http://www.w3.org/2000/svg" width="22.352" height="22.353" viewBox="0 0 22.352 22.353">
  <g id="checked_1_" data-name="checked (1)" transform="translate(0.25 0.25)" style="isolation: isolate">
    <g id="Gruppe_7" data-name="Gruppe 7" transform="translate(5.189 2.746)">
      <g id="Gruppe_6" data-name="Gruppe 6">
        <path id="Pfad_8" data-name="Pfad 8" d="M137.607,64.569a.823.823,0,0,0-1.165,0l-9.88,9.854L123,70.551a.824.824,0,1,0-1.212,1.116l4.145,4.5a.822.822,0,0,0,.588.265h.018a.824.824,0,0,0,.581-.24l10.487-10.46A.823.823,0,0,0,137.607,64.569Z" transform="translate(-121.568 -64.327)" fill="#ff6c00" stroke="#ff6c00" stroke-width="0.5"/>
      </g>
    </g>
    <g id="Gruppe_9" data-name="Gruppe 9">
      <g id="Gruppe_8" data-name="Gruppe 8">
        <path id="Pfad_9" data-name="Pfad 9" d="M21.029,10.1a.824.824,0,0,0-.824.824,9.279,9.279,0,1,1-9.279-9.279.824.824,0,0,0,0-1.647A10.927,10.927,0,1,0,21.852,10.927.824.824,0,0,0,21.029,10.1Z" fill="#ff6c00" stroke="#ff6c00" stroke-width="0.5"/>
      </g>
    </g>
  </g>
</svg>
