<svg xmlns="http://www.w3.org/2000/svg" xmlns:xlink="http://www.w3.org/1999/xlink" width="76.655" height="76.656" viewBox="0 0 76.655 76.656">
  <defs>
    <radialGradient id="radial-gradient" cx="0.5" cy="0.5" r="0.309" gradientTransform="translate(-0.309 -0.309) scale(1.618 1.618)" gradientUnits="objectBoundingBox">
      <stop offset="0" stop-color="#ffce00"/>
      <stop offset="1" stop-color="#ff6c00"/>
    </radialGradient>
    <radialGradient id="radial-gradient-2" cx="0.504" cy="0.494" r="0.671" gradientTransform="matrix(0.754, 0.626, -0.606, 0.779, -1.52, -0.781)" gradientUnits="objectBoundingBox">
      <stop offset="0" stop-color="#ff0101"/>
      <stop offset="1" stop-color="#e80000"/>
    </radialGradient>
    <linearGradient id="linear-gradient" x1="0.253" y1="0.27" x2="0.612" y2="0.809" gradientUnits="objectBoundingBox">
      <stop offset="0" stop-color="#fff"/>
      <stop offset="1" stop-color="#fff" stop-opacity="0"/>
    </linearGradient>
    <linearGradient id="linear-gradient-2" x1="-1.048" y1="-7.912" x2="-0.572" y2="-7.039" xlink:href="#linear-gradient"/>
  </defs>
  <g id="layer1" transform="translate(-279.708 -271.91) rotate(-34)">
    <g id="g3249" transform="translate(63.572 408.433)">
      <g id="g3228">
        <path id="path2383" d="M35.245-17.94A26.609,26.609,0,0,1,8.636,8.669,26.609,26.609,0,0,1-17.973-17.94,26.609,26.609,0,0,1,8.636-44.55,26.609,26.609,0,0,1,35.245-17.94Z" transform="translate(17.973 44.55)" stroke="#ec8000" stroke-linecap="round" stroke-linejoin="round" stroke-width="2" fill="url(#radial-gradient)"/>
        <path id="path3193" d="M131.4,493.8c-.306.04-.633,2.631-.858,2.834s-2.953.374-3.011.663,2.421,1.361,2.552,1.626-.573,2.791-.3,2.93,2.131-1.79,2.437-1.83,2.6,1.347,2.825,1.144-1.1-2.464-1.041-2.754,2.178-1.96,2.047-2.225-2.814.268-3.084.129S131.705,493.761,131.4,493.8Zm14.792-1.672c-.306.04-.633,2.631-.858,2.834s-2.953.374-3.011.663,2.421,1.361,2.552,1.626-.573,2.791-.3,2.93,2.131-1.79,2.437-1.83,2.6,1.347,2.825,1.144-1.1-2.464-1.041-2.754,2.172-1.959,2.041-2.224-2.808.268-3.078.128S146.5,492.089,146.191,492.128Zm-13.166,16.053c-.306.04-.633,2.625-.858,2.828s-2.952.38-3.01.669,2.421,1.355,2.552,1.62-.573,2.791-.3,2.93,2.132-1.784,2.438-1.824,2.6,1.347,2.825,1.144-1.1-2.464-1.041-2.754,2.178-1.96,2.047-2.225-2.814.268-3.084.129S133.33,508.141,133.024,508.181Zm14.792-1.672c-.306.04-.633,2.625-.858,2.828s-2.952.38-3.01.669,2.421,1.355,2.552,1.62-.573,2.791-.3,2.93,2.132-1.784,2.438-1.824,2.6,1.347,2.825,1.144-1.1-2.464-1.041-2.754,2.172-1.959,2.041-2.224-2.808.268-3.078.128S148.122,506.469,147.816,506.509Z" transform="translate(-113.492 -476.729)" fill="url(#radial-gradient-2)"/>
        <path id="path2410" d="M74.41,54.654a14.716,14.716,0,0,0-4.065.636c-4.97,1.491-8.276,5.127-7.379,8.117s5.66,4.2,10.63,2.71S81.872,60.99,80.975,58C80.33,55.851,77.69,54.624,74.41,54.654ZM61.1,64.457c-1.709.081-3.746,1.631-5.057,4.033-1.678,3.074-1.538,6.389.312,7.4s4.708-.666,6.387-3.741,1.544-6.389-.305-7.4A2.5,2.5,0,0,0,61.1,64.457Z" transform="translate(-51.694 -52.47)" fill="url(#linear-gradient)"/>
        <path id="path3205" d="M194.3,612.706a13.1,13.1,0,0,0,3-.414c3.7-.942,6.285-3.188,5.768-5.013s-3.941-2.538-7.642-1.6-6.285,3.188-5.768,5.013C190.03,612.008,191.9,612.744,194.3,612.706Zm10.183-6.08a5.694,5.694,0,0,0,3.882-2.5c1.369-1.892,1.419-3.92.115-4.527s-3.471.436-4.84,2.328-1.424,3.92-.12,4.527A2.036,2.036,0,0,0,204.485,606.625Z" transform="translate(-162.921 -562.185)" fill="url(#linear-gradient-2)"/>
        <path id="path3217" d="M13.288,9.684c0,5.348-2.975,9.684-6.644,9.684S0,15.032,0,9.684,2.975,0,6.644,0s6.644,4.335,6.644,9.684Z" transform="matrix(0.965, -0.264, 0.264, 0.965, 32.66, 14.78)" fill="rgba(255,255,255,0.42)"/>
      </g>
    </g>
  </g>
</svg>
