<svg xmlns="http://www.w3.org/2000/svg" width="16.202" height="17.675" viewBox="0 0 16.202 17.675">
  <g id="discord" transform="translate(-1)">
    <path id="Pfad_6047" data-name="Pfad 6047" d="M2.9,15.61H13.4l-.5-1.624,1.2,1.03L15.2,16l2,1.674V1.823A1.955,1.955,0,0,0,15.252,0L2.9,0A1.88,1.88,0,0,0,1,1.826v11.96A1.843,1.843,0,0,0,2.9,15.61ZM10.668,4.185l-.024.009.009-.009Zm-5.62.935a4.543,4.543,0,0,1,2.6-.935l.1.1a5.36,5.36,0,0,0-2.4,1.132s.2-.1.55-.247a8.409,8.409,0,0,1,6.9.3,6.057,6.057,0,0,0-2.3-1.132l.137-.135a4.547,4.547,0,0,1,2.562.928,11.368,11.368,0,0,1,1.358,5.17,3.925,3.925,0,0,1-2.895,1.271s-.348-.393-.6-.736A2.974,2.974,0,0,0,12.719,9.8a10.838,10.838,0,0,1-1.045.543,6.993,6.993,0,0,1-1.346.394,7.165,7.165,0,0,1-4.443-.689l-.385-.2a2.956,2.956,0,0,0,1.6,1.034c-.3.345-.6.738-.6.738a3.275,3.275,0,0,1-2.8-1.33,11.4,11.4,0,0,1,1.35-5.17Z" fill="#fff"/>
    <path id="Pfad_6048" data-name="Pfad 6048" d="M13.968,12.066a.986.986,0,0,0,0-1.97v0a.984.984,0,0,0,0,1.968Z" transform="translate(-3.167 -2.661)" fill="#fff"/>
    <path id="Pfad_6049" data-name="Pfad 6049" d="M9.35,12.066a.986.986,0,0,0,0-1.97l0,0a.984.984,0,0,0,0,1.968Z" transform="translate(-1.95 -2.661)" fill="#fff"/>
  </g>
</svg>
