<svg id="reddit" xmlns="http://www.w3.org/2000/svg" width="16" height="16" viewBox="0 0 16 16">
  <path id="Pfad_6043" data-name="Pfad 6043" d="M194.4,341.375a3.123,3.123,0,0,1-3.347,0,.216.216,0,0,0-.306.306,3.5,3.5,0,0,0,3.958,0,.218.218,0,0,0,0-.306A.215.215,0,0,0,194.4,341.375Zm0,0" transform="translate(-184.724 -330.646)" fill="#fff"/>
  <path id="Pfad_6044" data-name="Pfad 6044" d="M172.316,256.834a.834.834,0,1,0-.834.834A.835.835,0,0,0,172.316,256.834Zm0,0" transform="translate(-165.316 -248)" fill="#fff"/>
  <path id="Pfad_6045" data-name="Pfad 6045" d="M8,0a8,8,0,1,0,8,8A8,8,0,0,0,8,0Zm4.642,9.067a2.321,2.321,0,0,1,.027.35c0,1.8-2.09,3.25-4.667,3.25s-4.667-1.454-4.667-3.25a2.347,2.347,0,0,1,.027-.354A1.166,1.166,0,1,1,4.645,7.158,5.721,5.721,0,0,1,7.821,6.17c0-.016.582-2.79.582-2.79a.205.205,0,0,1,.09-.131.208.208,0,0,1,.157-.029l1.939.413a.833.833,0,1,1-.085.408L8.768,3.67l-.531,2.5a5.707,5.707,0,0,1,3.12.99A1.165,1.165,0,0,1,13.333,8,1.172,1.172,0,0,1,12.642,9.067Zm0,0" fill="#fff"/>
  <path id="Pfad_6046" data-name="Pfad 6046" d="M288.834,256a.834.834,0,1,0,.834.834A.835.835,0,0,0,288.834,256Zm0,0" transform="translate(-279 -248)" fill="#fff"/>
</svg>
