<svg xmlns="http://www.w3.org/2000/svg" width="18.425" height="14.97" viewBox="0 0 18.425 14.97">
  <g id="twitter_2_" data-name="twitter (2)" transform="translate(-28.279 -1.052)">
    <g id="Gruppe_2738" data-name="Gruppe 2738" transform="translate(28.279 1.052)">
      <path id="Pfad_6024" data-name="Pfad 6024" d="M18.425,49.772a7.875,7.875,0,0,1-2.176.6,3.756,3.756,0,0,0,1.662-2.088,7.549,7.549,0,0,1-2.4.914,3.777,3.777,0,0,0-6.534,2.583,3.889,3.889,0,0,0,.088.861,10.691,10.691,0,0,1-7.786-3.951,3.778,3.778,0,0,0,1.161,5.048,3.73,3.73,0,0,1-1.707-.465v.041a3.8,3.8,0,0,0,3.026,3.711,3.77,3.77,0,0,1-.99.124,3.34,3.34,0,0,1-.715-.064,3.813,3.813,0,0,0,3.529,2.631A7.59,7.59,0,0,1,.9,61.327a7.075,7.075,0,0,1-.9-.052,10.634,10.634,0,0,0,5.795,1.7A10.677,10.677,0,0,0,16.545,52.222c0-.167-.006-.328-.014-.488A7.535,7.535,0,0,0,18.425,49.772Z" transform="translate(0 -48)" fill="#fff"/>
    </g>
  </g>
</svg>
